<svg width="26" height="26" viewBox="0 0 26 26" fill="none" xmlns="http://www.w3.org/2000/svg">
<path d="M13 3.25C11.7071 4.54293 10.9807 6.29652 10.9807 8.125C10.9807 9.95348 11.7071 11.7071 13 13C14.2929 14.2929 16.0465 15.0193 17.875 15.0193C19.7035 15.0193 21.4571 14.2929 22.75 13C22.75 14.9284 22.1782 16.8134 21.1068 18.4168C20.0355 20.0202 18.5127 21.2699 16.7312 22.0078C14.9496 22.7458 12.9892 22.9389 11.0979 22.5627C9.20656 22.1865 7.46928 21.2579 6.10571 19.8943C4.74215 18.5307 3.81355 16.7934 3.43735 14.9021C3.06114 13.0108 3.25422 11.0504 3.99218 9.26884C4.73013 7.48726 5.97982 5.96452 7.58319 4.89317C9.18657 3.82183 11.0716 3.25 13 3.25Z" stroke="white" stroke-width="2" stroke-linecap="round" stroke-linejoin="round"/>
</svg>
